HIERARCHY
ROOT Hips
{
  OFFSET 267.745 86.9975 -272.335
  CHANNELS 6 Xposition Yposition Zposition Zrotation Xrotation Yrotation
  JOINT LeftUpLeg
  {
    OFFSET 8.64259 1.95398 -2.38835
    CHANNELS 3 Zrotation Xrotation Yrotation
    JOINT LeftLeg
    {
      OFFSET 43.7702 0 0
      CHANNELS 3 Zrotation Xrotation Yrotation
      JOINT LeftFoot
      {
        OFFSET 40.6238 0 0
        CHANNELS 3 Zrotation Xrotation Yrotation
        JOINT LeftToeBase
        {
          OFFSET 12.7242 0 0
          CHANNELS 3 Zrotation Xrotation Yrotation
          End Site
          {
            OFFSET 0 0 0
          }
        }
      }
    }
  }
  JOINT RightUpLeg
  {
    OFFSET -8.2249 1.95398 -2.59336
    CHANNELS 3 Zrotation Xrotation Yrotation
    JOINT RightLeg
    {
      OFFSET 43.5653 0 0
      CHANNELS 3 Zrotation Xrotation Yrotation
      JOINT RightFoot
      {
        OFFSET 40.6238 0 0
        CHANNELS 3 Zrotation Xrotation Yrotation
        JOINT RightToeBase
        {
          OFFSET 12.7242 0 0
          CHANNELS 3 Zrotation Xrotation Yrotation
          End Site
          {
            OFFSET 0 0 0
          }
        }
      }
    }
  }
  JOINT Spine
  {
    OFFSET 0.165834 0.87714 6.61349
    CHANNELS 3 Zrotation Xrotation Yrotation
    JOINT Spine1
    {
      OFFSET 7.38963 1.71661e-005 0
      CHANNELS 3 Zrotation Xrotation Yrotation
      JOINT Spine2
      {
        OFFSET 11.9445 1.14441e-005 0
        CHANNELS 3 Zrotation Xrotation Yrotation
        JOINT Spine3
        {
          OFFSET 14.7254 4.19617e-005 0
          CHANNELS 3 Zrotation Xrotation Yrotation
          JOINT Spine4
          {
            OFFSET 10.9679 0 0
            CHANNELS 3 Zrotation Xrotation Yrotation
            JOINT RightShoulder
            {
              OFFSET 2.46616 -1.6653 3.69651
              CHANNELS 3 Zrotation Xrotation Yrotation
              JOINT RightArm
              {
                OFFSET 13.0012 0 0
                CHANNELS 3 Zrotation Xrotation Yrotation
                JOINT RightForeArm
                {
                  OFFSET 28.7848 1.52588e-005 0
                  CHANNELS 3 Zrotation Xrotation Yrotation
                  JOINT RightHand
                  {
                    OFFSET 26.5688 1.52588e-005 0
                    CHANNELS 3 Zrotation Xrotation Yrotation
                    End Site
                    {
                      OFFSET 0 0 0
                    }
                  }
                }
              }
            }
            JOINT LeftShoulder
            {
              OFFSET 2.38034 -1.29275 -3.7523
              CHANNELS 3 Zrotation Xrotation Yrotation
              JOINT LeftArm
              {
                OFFSET 16.3182 6.10352e-005 0
                CHANNELS 3 Zrotation Xrotation Yrotation
                JOINT LeftForeArm
                {
                  OFFSET 27.0901 0 0
                  CHANNELS 3 Zrotation Xrotation Yrotation
                  JOINT LeftHand
                  {
                    OFFSET 24.5451 1.52588e-005 0
                    CHANNELS 3 Zrotation Xrotation Yrotation
                    End Site
                    {
                      OFFSET 0 0 0
                    }
                  }
                }
              }
            }
            JOINT Neck
            {
              OFFSET 5.0226 -0.0266342 0
              CHANNELS 3 Zrotation Xrotation Yrotation
              JOINT Head
              {
                OFFSET 6.69364 2.86102e-005 0
                CHANNELS 3 Zrotation Xrotation Yrotation
                End Site
                {
                  OFFSET 0 0 0
                }
              }
            }
          }
        }
      }
    }
  }
}
MOTION
Frames:	12
Frame Time:	0.0416667
-8.18671 96.7851 7.05055 138.522 -85.0177 138.894 -174.668 0.914497 91.5453 -14.9553 6.94937 2.95673 66.6795 3.59005 -1.71039 30.3519 -0.341112 1.58454 174.126 2.06545 86.652 -15.9886 -5.93276 0.10905 67.7371 -2.8506 3.96099 27.7409 0.309415 -0.505261 -0.298935 7.15698 -90.2098 12.5589 -0.693814 -0.338543 0.888138 -0.708042 -0.307684 -21.6477 -0.559991 -0.531413 -1.63506 -0.559995 -0.531418 100.813 -52.6788 -84.2114 29.1998 -1.92376 -7.28442 4.09583 -4.78376 -11.3193 -21.1196 -0.876497 -0.397452 -82.4368 -50.6574 89.9429 -34.5576 -1.52692 -18.4873 -1.5622 34.1518 -0.711981 0.116342 -0.158067 -7.03472 9.33357 -1.92218 2.96676 -21.0833 -1.46198 -7.22833 
-8.15006 96.7741 7.0288 137.922 -85.3097 138.618 -174.604 0.984189 91.8003 -14.5089 6.73505 3.03908 66.9182 3.75222 -1.97838 30.2517 -0.346841 1.73458 174.331 2.14654 86.9826 -15.5927 -5.86829 0.103288 67.333 -2.67037 3.97094 28.0767 0.185476 -0.107156 -0.280234 7.13457 -90.2501 12.6034 -0.675867 -0.420667 0.932601 -0.693722 -0.390528 -21.6029 -0.518197 -0.604346 -1.59028 -0.518193 -0.604348 100.769 -52.5523 -84.2815 29.3515 -2.02483 -7.20082 4.22338 -4.2374 -11.5691 -21.3007 -0.89396 -0.34336 -82.5355 -50.7753 89.804 -34.2338 -1.35995 -18.4806 -1.80718 33.7412 -0.608167 -0.136638 -0.158017 -7.18153 9.04843 -1.83876 2.8924 -20.2852 -1.42351 -7.11853 
-8.13152 96.7747 7.01203 137.856 -85.411 138.575 -174.62 1.13481 91.7669 -14.6641 6.43749 3.0333 66.9876 3.73653 -2.00329 30.1787 -0.336106 1.69985 174.355 2.2462 87.0022 -15.6013 -5.78081 0.0997332 67.3737 -2.69523 4.03798 27.9736 0.207595 -0.0678739 -0.273974 7.13465 -90.2619 12.6032 -0.669072 -0.445035 0.932347 -0.688008 -0.415165 -21.6031 -0.504395 -0.625544 -1.59041 -0.504394 -0.62555 100.771 -52.4607 -84.2812 29.424 -1.99659 -7.2375 4.21817 -4.14815 -11.6371 -21.2977 -0.936202 -0.113302 -82.478 -50.9676 89.9063 -34.1044 -1.27317 -18.4989 -1.83807 33.4426 -0.664012 0.0881514 -0.158018 -7.17908 9.18314 -1.71441 3.37024 -20.3345 -1.3217 -7.70429 
-8.13419 96.7861 7.00408 137.726 -85.3858 138.437 -174.607 1.176 91.7732 -14.744 6.38382 3.02266 66.9218 3.64477 -2.03817 30.1849 -0.289661 1.25201 174.343 2.21698 86.9985 -15.5748 -5.61242 0.0978852 67.4749 -2.72711 4.17743 27.6316 0.306142 -0.199715 -0.275803 7.15034 -90.2567 12.5718 -0.67019 -0.43478 0.900992 -0.688681 -0.404866 -21.6345 -0.508538 -0.616221 -1.62182 -0.508549 -0.616229 100.79 -52.4519 -84.2523 29.4556 -2.07457 -7.33137 4.34119 -3.97042 -11.5128 -21.7163 -0.884647 -0.488439 -82.4648 -51.0038 89.9292 -34.0612 -1.21531 -18.483 -1.77781 33.0273 -0.799595 0.456703 -0.158051 -7.08126 9.45283 -1.70409 2.97544 -20.4108 -1.31458 -7.09397 
-8.11407 96.7646 6.99176 137.066 -85.4202 137.784 -174.644 1.1719 91.7541 -14.5738 6.44301 3.04149 66.9111 3.72874 -1.84174 30.2356 -0.279478 1.10433 174.324 2.33672 86.9754 -15.6776 -5.45877 0.122423 67.651 -2.72126 4.41789 27.3873 0.360674 -0.1327 -0.279101 7.15189 -90.2538 12.5688 -0.675363 -0.428404 0.897942 -0.693561 -0.398269 -21.6375 -0.515389 -0.607501 -1.62488 -0.515396 -0.607515 100.804 -52.5358 -84.2286 29.3436 -2.25262 -7.31658 4.46882 -3.56377 -11.6533 -21.8998 -0.936764 -0.252831 -82.3637 -51.0193 90.0822 -34.1515 -1.33816 -18.5059 -1.63098 33.6272 -0.837878 0.345143 -0.158035 -7.22929 9.38528 -1.62708 3.03055 -20.4327 -1.24215 -7.13464 
-8.1042 96.7816 6.97023 136.203 -85.4321 136.887 -174.634 1.22753 91.7305 -14.5517 6.60335 2.99406 66.9057 3.76609 -1.70402 30.0804 -0.241311 0.894743 174.342 2.37714 86.9667 -15.6294 -5.25174 0.0901938 67.5758 -2.71439 4.31527 27.4657 0.280236 0.461511 -0.279714 7.16954 -90.2514 12.5335 -0.675374 -0.423947 0.862642 -0.693387 -0.393819 -21.6729 -0.516751 -0.607445 -1.66023 -0.516747 -0.607456 100.732 -52.606 -84.3362 29.3057 -2.15601 -7.29647 4.29375 -4.07734 -11.799 -21.7949 -0.99326 0.0738839 -82.3757 -50.8171 90.0478 -34.4527 -1.37849 -18.522 -1.49043 33.7861 -0.89757 0.523311 -0.160281 -7.14131 9.6235 -1.64403 2.942 -20.5716 -1.27669 -6.85699 
-8.10182 96.7725 6.94146 134.985 -85.3861 135.597 -174.705 1.31593 91.6421 -14.6682 6.97302 2.98794 66.8048 3.67406 -1.76582 30.3173 -0.370432 1.89645 174.325 2.4834 86.8985 -15.7499 -5.04946 0.075498 67.6791 -2.61139 4.61089 27.3198 0.361754 0.019372 -0.298545 7.17802 -90.2477 12.5165 -0.711019 -0.412482 0.84569 -0.728484 -0.380801 -21.69 -0.55418 -0.60711 -1.67734 -0.554183 -0.607109 100.554 -52.5048 -84.6074 29.3888 -2.10396 -7.23843 4.25805 -4.22042 -11.6927 -21.7195 -0.974158 -0.00763951 -82.3566 -50.7369 90.0706 -34.5045 -1.22004 -18.4138 -1.59444 33.4841 -0.919822 1.10578 -0.172546 -7.06527 9.31706 -1.76469 2.6875 -20.4798 -1.39518 -6.45314 
-8.08318 96.7724 6.933 134.619 -85.36 135.276 -174.674 1.34832 91.6883 -14.6621 6.8691 2.98865 66.8003 3.70137 -1.64529 30.2826 -0.31297 1.38069 174.383 2.43782 86.9655 -15.6718 -4.87164 0.0244272 67.7204 -2.62611 4.67278 27.119 0.396217 0.166149 -0.290337 7.20107 -90.2626 12.4703 -0.701789 -0.443803 0.799485 -0.720632 -0.412491 -21.736 -0.535958 -0.6342 -1.7234 -0.53596 -0.634206 100.62 -52.2001 -84.5165 29.6922 -2.06843 -7.30841 4.28384 -4.10815 -11.6057 -21.5273 -0.956893 -0.0548945 -82.3698 -50.8694 90.0609 -34.3713 -1.17182 -18.5125 -1.66634 33.6658 -0.843635 1.11104 -0.176686 -7.19813 9.13425 -1.79888 2.65119 -20.1011 -1.45378 -6.35024 
-8.07843 96.7656 6.91053 134.115 -85.4246 134.709 -174.704 1.43323 91.6197 -14.6497 6.58109 2.9616 66.8385 3.65856 -1.85401 30.2049 -0.283893 1.17647 174.317 2.60236 86.8677 -15.7911 -4.98431 0.0857276 67.7502 -2.63957 4.58659 27.2716 0.365557 0.0982933 -0.280628 7.21166 -90.2621 12.4491 -0.682165 -0.445084 0.778315 -0.701102 -0.414641 -21.7572 -0.516865 -0.629533 -1.74449 -0.516874 -0.629537 100.622 -52.1727 -84.5142 29.6613 -1.98755 -7.33776 4.16961 -4.45769 -11.446 -21.1809 -0.949476 -0.0100708 -82.4927 -51.0319 89.8897 -34.1681 -1.15103 -18.4796 -1.71978 33.562 -0.829354 1.27822 -0.170905 -7.00284 8.74891 -1.67321 3.32965 -20.133 -1.32724 -7.33412 
-8.09893 96.7806 6.87684 135.166 -85.4389 135.806 -174.66 1.40763 91.703 -14.6853 6.92335 2.95525 66.9007 3.68608 -2.00533 29.9254 -0.355545 2.11229 174.322 2.51402 86.9125 -15.6372 -5.17637 0.109872 67.5764 -2.62174 4.42782 27.3053 0.348951 0.177418 -0.276847 7.23422 -90.2743 12.4039 -0.680431 -0.470159 0.733058 -0.700463 -0.439763 -21.8023 -0.507681 -0.652919 -1.78965 -0.507673 -0.652917 100.686 -52.1207 -84.4187 29.7357 -1.75623 -7.59569 4.17667 -4.46814 -11.1518 -21.2116 -0.942598 -0.0547694 -82.4077 -50.6786 89.9882 -34.6928 -1.25365 -18.4871 -1.49303 34.5408 -0.900609 0.885919 -0.172287 -7.23804 7.22955 -1.71791 2.92227 -19.5985 -1.46622 -5.99356 
-8.13312 96.7901 6.77786 133.578 -85.2921 134.084 -174.858 1.47897 91.5162 -14.6936 6.67008 3.05172 66.6554 3.56628 -2.1191 30.0959 -0.345594 1.87125 174.307 2.60614 86.8263 -15.746 -5.20573 0.0803589 67.5048 -2.58236 4.35981 27.5316 0.300989 0.0982361 -0.301965 7.25288 -90.2669 12.3666 -0.726735 -0.450249 0.695802 -0.745841 -0.417831 -21.8398 -0.557821 -0.647839 -1.82714 -0.557818 -0.647844 100.908 -52.0547 -84.0821 29.6711 -1.8847 -7.9065 4.25357 -4.33626 -11.1303 -21.4824 -0.917223 -0.260401 -82.3445 -50.4261 90.0633 -34.7871 -0.66506 -18.6422 -1.527 37.1391 -1.2757 0.955011 -0.163457 -6.84469 4.39508 -1.67697 2.61473 -19.4224 -1.4582 -4.90417 
-8.17066 96.8141 6.63552 128.488 -85.2721 129.135 -174.931 1.93173 91.6338 -14.7091 6.78085 3.11775 66.4794 3.47666 -2.21961 30.3491 -0.349532 1.66883 174.411 2.82443 87.04 -15.4735 -5.231 0.134206 67.1553 -2.57121 3.95624 27.6794 0.282001 -0.0782263 -0.312095 7.28147 -90.2839 12.3093 -0.754883 -0.481721 0.638484 -0.77535 -0.448037 -21.8971 -0.575207 -0.686323 -1.88444 -0.575214 -0.686331 101.218 -52.0558 -83.611 29.5748 -2.21674 -8.53773 4.30227 -4.16636 -11.3005 -21.6064 -0.909777 -0.329183 -82.4599 -49.9413 89.8483 -35.3471 -0.4885 -19.2816 -1.09857 40.328 -1.57553 0.50069 -0.148819 -6.7003 1.56394 -1.61644 1.79459 -21.2962 -1.43961 -2.93191 
